{
  "accessors": [
    {
      "bufferView": 2,
      "componentType": 5126,
      "count": 5488,
      "max": [
        0.11917176097631454,
        0.11486408114433289,
        0.03775549307465553
      ],
      "min": [
        -0.11906316131353378,
        -0.11486408114433289,
        -0.0009661838412284851
      ],
      "type": "VEC3"
    },
    {
      "bufferView": 2,
      "byteOffset": 65856,
      "componentType": 5126,
      "count": 5488,
      "max": [
        0.986931324005127,
        0.989162027835846,
        0.9998685121536255
      ],
      "min": [
        -0.9875859618186951,
        -0.989162027835846,
        -0.9998667240142822
      ],
      "type": "VEC3"
    },
    {
      "bufferView": 1,
      "componentType": 5126,
      "count": 5488,
      "max": [
        0.0,
        0.0
      ],
      "min": [
        0.0,
        0.0
      ],
      "type": "VEC2"
    },
    {
      "bufferView": 0,
      "componentType": 5125,
      "count": 32916,
      "type": "SCALAR"
    },
    {
      "bufferView": 2,
      "byteOffset": 131712,
      "componentType": 5126,
      "count": 22409,
      "max": [
        0.07280056923627853,
        0.07499977201223373,
        0.05883565545082092
      ],
      "min": [
        -0.07193262130022049,
        -0.07136085629463196,
        0.008235841989517212
      ],
      "type": "VEC3"
    },
    {
      "bufferView": 2,
      "byteOffset": 400620,
      "componentType": 5126,
      "count": 22409,
      "max": [
        0.9999380111694336,
        0.9999009370803833,
        1.0
      ],
      "min": [
        -0.9999794960021973,
        -0.9999427795410156,
        -1.0
      ],
      "type": "VEC3"
    },
    {
      "bufferView": 1,
      "byteOffset": 43904,
      "componentType": 5126,
      "count": 22409,
      "max": [
        0.0,
        0.0
      ],
      "min": [
        0.0,
        0.0
      ],
      "type": "VEC2"
    },
    {
      "bufferView": 0,
      "byteOffset": 131664,
      "componentType": 5125,
      "count": 134454,
      "type": "SCALAR"
    },
    {
      "bufferView": 2,
      "byteOffset": 669528,
      "componentType": 5126,
      "count": 549,
      "max": [
        0.08092794567346573,
        0.07916783541440964,
        0.01726670190691948
      ],
      "min": [
        -0.08116164058446884,
        -0.07589145004749298,
        0.010992072522640228
      ],
      "type": "VEC3"
    },
    {
      "bufferView": 2,
      "byteOffset": 676116,
      "componentType": 5126,
      "count": 549,
      "max": [
        0.9975640177726746,
        0.9980658292770386,
        0.9999992847442627
      ],
      "min": [
        -0.99560546875,
        -0.9814924597740173,
        -0.9999998807907104
      ],
      "type": "VEC3"
    },
    {
      "bufferView": 1,
      "byteOffset": 223176,
      "componentType": 5126,
      "count": 549,
      "max": [
        1.000000238418579,
        1.0000001192092896
      ],
      "min": [
        0.0,
        -1.2637073609766958e-09
      ],
      "type": "VEC2"
    },
    {
      "bufferView": 0,
      "byteOffset": 669480,
      "componentType": 5125,
      "count": 2400,
      "type": "SCALAR"
    }
  ],
  "asset": {
    "extras": {
      "author": "RafaelRiva (https://sketchfab.com/RafaelRiva)",
      "license": "CC-BY-4.0 (http://creativecommons.org/licenses/by/4.0/)",
      "source": "https://sketchfab.com/3d-models/typical-brazilian-glass-plate-free-9ec78d4d7b6e41f6a2b39cfe7e8a6dc1",
      "title": "Typical Brazilian Glass Plate (Free)"
    },
    "generator": "Sketchfab-12.67.0",
    "version": "2.0"
  },
  "bufferViews": [
    {
      "buffer": 0,
      "byteLength": 679080,
      "name": "floatBufferViews",
      "target": 34963
    },
    {
      "buffer": 0,
      "byteLength": 227568,
      "byteOffset": 679080,
      "byteStride": 8,
      "name": "floatBufferViews",
      "target": 34962
    },
    {
      "buffer": 0,
      "byteLength": 682704,
      "byteOffset": 906648,
      "byteStride": 12,
      "name": "floatBufferViews",
      "target": 34962
    }
  ],
  "buffers": [
    {
      "byteLength": 1589352,
      "uri": "scene.bin"
    }
  ],
  "extensionsRequired": [
    "KHR_materials_pbrSpecularGlossiness"
  ],
  "extensionsUsed": [
    "KHR_materials_pbrSpecularGlossiness"
  ],
  "images": [
    {
      "uri": "textures/Vidro_specularGlossiness.png"
    }
  ],
  "materials": [
    {
      "alphaMode": "BLEND",
      "doubleSided": true,
      "extensions": {
        "KHR_materials_pbrSpecularGlossiness": {
          "diffuseFactor": [
            1.0,
            0.24587634835347769,
            0.13788420204419904,
            0.11115316564215749
          ],
          "glossinessFactor": 1.0,
          "specularFactor": [
            0.37173573359001494,
            0.17461010770540594,
            0.06472119811851991
          ],
          "specularGlossinessTexture": {
            "index": 0
          }
        }
      },
      "name": "Vidro"
    },
    {
      "doubleSided": true,
      "extensions": {
        "KHR_materials_pbrSpecularGlossiness": {
          "diffuseFactor": [
            0.6831716576944958,
            0.4188513460372061,
            0.14644727307689026,
            1.0
          ],
          "glossinessFactor": 0.5854066723820295,
          "specularFactor": [
            0.0,
            0.0,
            0.0
          ]
        }
      },
      "name": "Pudim"
    },
    {
      "doubleSided": true,
      "extensions": {
        "KHR_materials_pbrSpecularGlossiness": {
          "diffuseFactor": [
            0.651374896449826,
            0.22899824044796158,
            0.043472953696723604,
            1.0
          ],
          "glossinessFactor": 0.1788854381999832,
          "specularFactor": [
            0.0,
            0.0,
            0.0
          ]
        }
      },
      "name": "FF_Caramel"
    }
  ],
  "meshes": [
    {
      "name": "Prato_Vidro_0",
      "primitives": [
        {
          "attributes": {
            "NORMAL": 1,
            "POSITION": 0,
            "TEXCOORD_0": 2
          },
          "indices": 3,
          "material": 0,
          "mode": 4
        }
      ]
    },
    {
      "name": "Pudim_Pudim_0",
      "primitives": [
        {
          "attributes": {
            "NORMAL": 5,
            "POSITION": 4,
            "TEXCOORD_0": 6
          },
          "indices": 7,
          "material": 1,
          "mode": 4
        }
      ]
    },
    {
      "name": "Caldo_FF Caramel_0",
      "primitives": [
        {
          "attributes": {
            "NORMAL": 9,
            "POSITION": 8,
            "TEXCOORD_0": 10
          },
          "indices": 11,
          "material": 2,
          "mode": 4
        }
      ]
    }
  ],
  "nodes": [
    {
      "children": [
        1
      ],
      "matrix": [
        1.3497792482376099,
        0.0,
        0.0,
        0.0,
        0.0,
        2.9971119991092584e-16,
        -1.3497792482376099,
        0.0,
        0.0,
        1.3497792482376099,
        2.9971119991092584e-16,
        0.0,
        0.0,
        -2.5080866272730865e-09,
        -2.8707549670770054e-09,
        1.0
      ],
      "name": "Sketchfab_model"
    },
    {
      "children": [
        2
      ],
      "matrix": [
        0.009999999776482582,
        0.0,
        0.0,
        0.0,
        0.0,
        0.0,
        0.009999999776482582,
        0.0,
        0.0,
        -0.009999999776482582,
        0.0,
        0.0,
        0.0,
        0.0,
        0.0,
        1.0
      ],
      "name": "6111360a08f04597b01db5d2892e50b5.fbx"
    },
    {
      "children": [
        3,
        5,
        7
      ],
      "name": "RootNode"
    },
    {
      "children": [
        4
      ],
      "matrix": [
        100.0,
        0.0,
        0.0,
        0.0,
        -0.0,
        -1.629206793918314e-05,
        -99.99999999999868,
        0.0,
        0.0,
        99.99999999999868,
        -1.629206793918314e-05,
        0.0,
        -0.21958789229393005,
        0.18137933313846588,
        -3.544358968734741,
        1.0
      ],
      "name": "Prato"
    },
    {
      "mesh": 0,
      "name": "Prato_Vidro_0"
    },
    {
      "children": [
        6
      ],
      "matrix": [
        -67.722542114177,
        -3.3863345516582655e-06,
        -73.57755968767592,
        0.0,
        -73.5775596876754,
        1.5791615515237112e-05,
        67.7225421141758,
        0.0,
        9.325773492330214e-06,
        99.9999999999987,
        -1.3186065794812407e-05,
        0.0,
        -0.02427331730723381,
        0.18137933313846588,
        -3.8373305797576904,
        1.0
      ],
      "name": "Pudim"
    },
    {
      "mesh": 1,
      "name": "Pudim_Pudim_0"
    },
    {
      "children": [
        8
      ],
      "matrix": [
        100.0,
        0.0,
        0.0,
        0.0,
        -0.0,
        -1.629206793918314e-05,
        -99.99999999999868,
        0.0,
        0.0,
        99.99999999999868,
        -1.629206793918314e-05,
        0.0,
        -0.21958789229393005,
        -0.004378578159958124,
        -3.544358968734741,
        1.0
      ],
      "name": "Caldo"
    },
    {
      "mesh": 2,
      "name": "Caldo_FF Caramel_0"
    }
  ],
  "samplers": [
    {
      "magFilter": 9729,
      "minFilter": 9729,
      "wrapS": 33648,
      "wrapT": 33648
    }
  ],
  "scene": 0,
  "scenes": [
    {
      "name": "Sketchfab_Scene",
      "nodes": [
        0
      ]
    }
  ],
  "textures": [
    {
      "sampler": 0,
      "source": 0
    }
  ]
}
