{
  "accessors": [
    {
      "bufferView": 2,
      "componentType": 5126,
      "count": 2693,
      "max": [
        29.731889724731445,
        83.56300354003906,
        26.40172576904297
      ],
      "min": [
        -29.731889724731445,
        0.04470543935894966,
        -30.928730010986328
      ],
      "type": "VEC3"
    },
    {
      "bufferView": 2,
      "byteOffset": 32316,
      "componentType": 5126,
      "count": 2693,
      "max": [
        1.0,
        1.0,
        1.0
      ],
      "min": [
        -1.0,
        -1.0,
        -1.0
      ],
      "type": "VEC3"
    },
    {
      "bufferView": 3,
      "componentType": 5126,
      "count": 2693,
      "max": [
        1.0,
        1.0,
        1.0,
        1.0
      ],
      "min": [
        -1.0,
        -1.0,
        -1.0,
        -1.0
      ],
      "type": "VEC4"
    },
    {
      "bufferView": 1,
      "componentType": 5126,
      "count": 2693,
      "max": [
        0.9962860345840454,
        0.9955887794494629
      ],
      "min": [
        0.0036770403385162354,
        0.003711998462677002
      ],
      "type": "VEC2"
    },
    {
      "bufferView": 1,
      "byteOffset": 21544,
      "componentType": 5126,
      "count": 2693,
      "max": [
        0.9962860345840454,
        0.9955887794494629
      ],
      "min": [
        0.0036770403385162354,
        0.003711998462677002
      ],
      "type": "VEC2"
    },
    {
      "bufferView": 1,
      "byteOffset": 43088,
      "componentType": 5126,
      "count": 2693,
      "max": [
        0.9962860345840454,
        0.9955887794494629
      ],
      "min": [
        0.0036770403385162354,
        0.003711998462677002
      ],
      "type": "VEC2"
    },
    {
      "bufferView": 1,
      "byteOffset": 64632,
      "componentType": 5126,
      "count": 2693,
      "max": [
        0.9962860345840454,
        0.9955887794494629
      ],
      "min": [
        0.0036770403385162354,
        0.003711998462677002
      ],
      "type": "VEC2"
    },
    {
      "bufferView": 0,
      "componentType": 5125,
      "count": 8520,
      "type": "SCALAR"
    }
  ],
  "asset": {
    "extras": {
      "author": "Caxtor (https://sketchfab.com/caxtor)",
      "license": "CC-BY-4.0 (http://creativecommons.org/licenses/by/4.0/)",
      "source": "https://sketchfab.com/3d-models/chair-08-2k-29d86acb102a4cffad2781b91b101c2a",
      "title": "Chair_08 2K"
    },
    "generator": "Sketchfab-13.49.0",
    "version": "2.0"
  },
  "bufferViews": [
    {
      "buffer": 0,
      "byteLength": 34080,
      "name": "floatBufferViews",
      "target": 34963
    },
    {
      "buffer": 0,
      "byteLength": 86176,
      "byteOffset": 34080,
      "byteStride": 8,
      "name": "floatBufferViews",
      "target": 34962
    },
    {
      "buffer": 0,
      "byteLength": 64632,
      "byteOffset": 120256,
      "byteStride": 12,
      "name": "floatBufferViews",
      "target": 34962
    },
    {
      "buffer": 0,
      "byteLength": 43088,
      "byteOffset": 184888,
      "byteStride": 16,
      "name": "floatBufferViews",
      "target": 34962
    }
  ],
  "buffers": [
    {
      "byteLength": 227976,
      "uri": "scene.bin"
    }
  ],
  "images": [
    {
      "uri": "textures/Chair_08_2K_baseColor.jpeg"
    },
    {
      "uri": "textures/Chair_08_2K_metallicRoughness.png"
    },
    {
      "uri": "textures/Chair_08_2K_normal.png"
    }
  ],
  "materials": [
    {
      "doubleSided": true,
      "name": "Chair_08_2K",
      "normalTexture": {
        "index": 2
      },
      "occlusionTexture": {
        "index": 1
      },
      "pbrMetallicRoughness": {
        "baseColorTexture": {
          "index": 0
        },
        "metallicFactor": 0.0,
        "metallicRoughnessTexture": {
          "index": 1
        }
      }
    }
  ],
  "meshes": [
    {
      "name": "Chair_08 2K_Chair_08 2K_0",
      "primitives": [
        {
          "attributes": {
            "NORMAL": 1,
            "POSITION": 0,
            "TANGENT": 2,
            "TEXCOORD_0": 3,
            "TEXCOORD_1": 4,
            "TEXCOORD_2": 5,
            "TEXCOORD_3": 6
          },
          "indices": 7,
          "material": 0,
          "mode": 4
        }
      ]
    }
  ],
  "nodes": [
    {
      "children": [
        1
      ],
      "matrix": [
        1.0,
        0.0,
        0.0,
        0.0,
        0.0,
        -5.053215392444312e-16,
        1.0,
        0.0,
        0.0,
        -1.0,
        -5.053215392444312e-16,
        0.0,
        0.0,
        0.0,
        0.0,
        1.0
      ],
      "name": "Sketchfab_model"
    },
    {
      "children": [
        2
      ],
      "matrix": [
        0.009999999776482582,
        0.0,
        0.0,
        0.0,
        0.0,
        -0.009999999776482582,
        0.0,
        0.0,
        0.0,
        0.0,
        -0.009999999776482582,
        0.0,
        0.0,
        0.0,
        0.0,
        1.0
      ],
      "name": "3088fce7b44e42358d0b61e601ff7d8a.fbx"
    },
    {
      "children": [
        3
      ],
      "name": "RootNode"
    },
    {
      "children": [
        4
      ],
      "matrix": [
        1.0,
        0.0,
        0.0,
        0.0,
        0.0,
        2.220446049250313e-16,
        1.0,
        0.0,
        0.0,
        -1.0,
        2.220446049250313e-16,
        0.0,
        0.0,
        0.0,
        0.0,
        1.0
      ],
      "name": "Chair_08 2K"
    },
    {
      "mesh": 0,
      "name": "Chair_08 2K_Chair_08 2K_0"
    }
  ],
  "samplers": [
    {
      "magFilter": 9729,
      "minFilter": 9987,
      "wrapS": 10497,
      "wrapT": 10497
    }
  ],
  "scene": 0,
  "scenes": [
    {
      "name": "Sketchfab_Scene",
      "nodes": [
        0
      ]
    }
  ],
  "textures": [
    {
      "sampler": 0,
      "source": 0
    },
    {
      "sampler": 0,
      "source": 1
    },
    {
      "sampler": 0,
      "source": 2
    }
  ]
}
