{
  "accessors": [
    {
      "bufferView": 2,
      "componentType": 5126,
      "count": 3551,
      "max": [
        36.917755126953125,
        65.15023803710938,
        4.316108703613281
      ],
      "min": [
        -4.85958194732666,
        -28.02643394470215,
        -4.316089153289795
      ],
      "type": "VEC3"
    },
    {
      "bufferView": 2,
      "byteOffset": 42612,
      "componentType": 5126,
      "count": 3551,
      "max": [
        0.9999964833259583,
        0.9999998807907104,
        1.0
      ],
      "min": [
        -1.0,
        -1.0,
        -1.0
      ],
      "type": "VEC3"
    },
    {
      "bufferView": 3,
      "componentType": 5126,
      "count": 3551,
      "max": [
        1.0,
        0.9999990463256836,
        1.0,
        1.0
      ],
      "min": [
        -0.9999927878379822,
        -0.9999669194221497,
        -1.0,
        -1.0
      ],
      "type": "VEC4"
    },
    {
      "bufferView": 1,
      "componentType": 5126,
      "count": 3551,
      "max": [
        1.990996241569519,
        0.9877115488052368
      ],
      "min": [
        0.004905614536255598,
        0.009803356602787971
      ],
      "type": "VEC2"
    },
    {
      "bufferView": 1,
      "byteOffset": 28408,
      "componentType": 5126,
      "count": 3551,
      "max": [
        1.990996241569519,
        0.9877115488052368
      ],
      "min": [
        0.004905614536255598,
        0.009803356602787971
      ],
      "type": "VEC2"
    },
    {
      "bufferView": 0,
      "componentType": 5125,
      "count": 13356,
      "type": "SCALAR"
    }
  ],
  "asset": {
    "extras": {
      "author": "jellystuff (https://sketchfab.com/jellystuff)",
      "license": "CC-BY-4.0 (http://creativecommons.org/licenses/by/4.0/)",
      "source": "https://sketchfab.com/3d-models/stylized-axe-2f2a744043044a11be8143b3e3d83341",
      "title": "Stylized Axe"
    },
    "generator": "Sketchfab-12.79.0",
    "version": "2.0"
  },
  "bufferViews": [
    {
      "buffer": 0,
      "byteLength": 53424,
      "name": "floatBufferViews",
      "target": 34963
    },
    {
      "buffer": 0,
      "byteLength": 56816,
      "byteOffset": 53424,
      "byteStride": 8,
      "name": "floatBufferViews",
      "target": 34962
    },
    {
      "buffer": 0,
      "byteLength": 85224,
      "byteOffset": 110240,
      "byteStride": 12,
      "name": "floatBufferViews",
      "target": 34962
    },
    {
      "buffer": 0,
      "byteLength": 56816,
      "byteOffset": 195464,
      "byteStride": 16,
      "name": "floatBufferViews",
      "target": 34962
    }
  ],
  "buffers": [
    {
      "byteLength": 252280,
      "uri": "scene.bin"
    }
  ],
  "images": [
    {
      "uri": "textures/material_baseColor.png"
    },
    {
      "uri": "textures/material_metallicRoughness.png"
    },
    {
      "uri": "textures/material_normal.png"
    }
  ],
  "materials": [
    {
      "doubleSided": true,
      "name": "material",
      "normalTexture": {
        "index": 2
      },
      "pbrMetallicRoughness": {
        "baseColorTexture": {
          "index": 0
        },
        "metallicRoughnessTexture": {
          "index": 1
        }
      }
    }
  ],
  "meshes": [
    {
      "name": "Axe_Axe_0",
      "primitives": [
        {
          "attributes": {
            "NORMAL": 1,
            "POSITION": 0,
            "TANGENT": 2,
            "TEXCOORD_0": 3,
            "TEXCOORD_1": 4
          },
          "indices": 5,
          "material": 0,
          "mode": 4
        }
      ]
    }
  ],
  "nodes": [
    {
      "children": [
        1
      ],
      "matrix": [
        0.4192877411842346,
        -0.8412614464759828,
        0.34128728508949263,
        0.0,
        -2.7755575615628914e-17,
        -0.37592774629592873,
        -0.9266489744186402,
        0.0,
        0.9078534245491028,
        0.3885325491428376,
        -0.1576218903064727,
        0.0,
        -0.07543201744556427,
        0.24834609031677246,
        -0.025447523221373503,
        1.0
      ],
      "name": "Sketchfab_model"
    },
    {
      "children": [
        2
      ],
      "matrix": [
        0.009999999776482582,
        0.0,
        0.0,
        0.0,
        0.0,
        0.0,
        0.009999999776482582,
        0.0,
        0.0,
        -0.009999999776482582,
        0.0,
        0.0,
        0.0,
        0.0,
        0.0,
        1.0
      ],
      "name": "5d09d643854a4d47b49299ca9641b4ed.fbx"
    },
    {
      "children": [
        3
      ],
      "name": "RootNode"
    },
    {
      "children": [
        4
      ],
      "name": "Axe"
    },
    {
      "mesh": 0,
      "name": "Axe_Axe_0"
    }
  ],
  "samplers": [
    {
      "magFilter": 9729,
      "minFilter": 9987,
      "wrapS": 10497,
      "wrapT": 10497
    }
  ],
  "scene": 0,
  "scenes": [
    {
      "name": "Sketchfab_Scene",
      "nodes": [
        0
      ]
    }
  ],
  "textures": [
    {
      "sampler": 0,
      "source": 0
    },
    {
      "sampler": 0,
      "source": 1
    },
    {
      "sampler": 0,
      "source": 2
    }
  ]
}
