{
  "accessors": [
    {
      "bufferView": 2,
      "componentType": 5126,
      "count": 5416,
      "max": [
        59.57149887084961,
        40.66350173950195,
        117.89309692382813
      ],
      "min": [
        -34.485599517822266,
        -11.87660026550293,
        3.178999900817871
      ],
      "type": "VEC3"
    },
    {
      "bufferView": 2,
      "byteOffset": 64992,
      "componentType": 5126,
      "count": 5416,
      "max": [
        0.9999948740005493,
        0.9999948740005493,
        0.999994158744812
      ],
      "min": [
        -0.9999901056289673,
        -0.9999979734420776,
        -0.9999945163726807
      ],
      "type": "VEC3"
    },
    {
      "bufferView": 3,
      "componentType": 5126,
      "count": 5416,
      "max": [
        0.9999913573265076,
        0.9999223947525024,
        0.999990701675415,
        1.0
      ],
      "min": [
        -0.9999914169311523,
        -0.999994158744812,
        -0.9999974370002747,
        1.0
      ],
      "type": "VEC4"
    },
    {
      "bufferView": 1,
      "componentType": 5126,
      "count": 5416,
      "max": [
        0.9997000098228455,
        0.9994999766349792
      ],
      "min": [
        9.999999747378752e-05,
        9.999999747378752e-05
      ],
      "type": "VEC2"
    },
    {
      "bufferView": 0,
      "componentType": 5125,
      "count": 14658,
      "type": "SCALAR"
    },
    {
      "bufferView": 2,
      "byteOffset": 129984,
      "componentType": 5126,
      "count": 9947,
      "max": [
        62.54650115966797,
        41.12310028076172,
        117.82849884033203
      ],
      "min": [
        -34.490501403808594,
        -11.902099609375,
        0.09179999679327011
      ],
      "type": "VEC3"
    },
    {
      "bufferView": 2,
      "byteOffset": 249348,
      "componentType": 5126,
      "count": 9947,
      "max": [
        0.9999997615814209,
        0.9999984502792358,
        0.9999858140945435
      ],
      "min": [
        -0.9999955892562866,
        -0.999996542930603,
        -0.9999864101409912
      ],
      "type": "VEC3"
    },
    {
      "bufferView": 3,
      "byteOffset": 86656,
      "componentType": 5126,
      "count": 9947,
      "max": [
        0.9998533129692078,
        0.9999945759773254,
        0.9999903440475464,
        1.0
      ],
      "min": [
        -0.9998801350593567,
        -0.9998920559883118,
        -1.0,
        -1.0
      ],
      "type": "VEC4"
    },
    {
      "bufferView": 1,
      "byteOffset": 43328,
      "componentType": 5126,
      "count": 9947,
      "max": [
        0.9997000098228455,
        0.9990000128746033
      ],
      "min": [
        9.999999747378752e-05,
        9.999999747378752e-05
      ],
      "type": "VEC2"
    },
    {
      "bufferView": 0,
      "byteOffset": 58632,
      "componentType": 5125,
      "count": 45426,
      "type": "SCALAR"
    },
    {
      "bufferView": 2,
      "byteOffset": 368712,
      "componentType": 5126,
      "count": 2330,
      "max": [
        58.40890121459961,
        40.72249984741211,
        105.14099884033203
      ],
      "min": [
        -21.550199508666992,
        -11.902099609375,
        4.314300060272217
      ],
      "type": "VEC3"
    },
    {
      "bufferView": 2,
      "byteOffset": 396672,
      "componentType": 5126,
      "count": 2330,
      "max": [
        0.9998575448989868,
        0.9997881054878235,
        0.9998716115951538
      ],
      "min": [
        -0.9998735189437866,
        -0.9999948740005493,
        -0.9999992847442627
      ],
      "type": "VEC3"
    },
    {
      "bufferView": 3,
      "byteOffset": 245808,
      "componentType": 5126,
      "count": 2330,
      "max": [
        0.9988405704498291,
        0.9995174407958984,
        0.9998800158500671,
        1.0
      ],
      "min": [
        -0.9962137937545776,
        -0.9999001622200012,
        -0.9991037845611572,
        1.0
      ],
      "type": "VEC4"
    },
    {
      "bufferView": 1,
      "byteOffset": 122904,
      "componentType": 5126,
      "count": 2330,
      "max": [
        0.9879000186920166,
        0.9987000226974487
      ],
      "min": [
        9.999999747378752e-05,
        9.999999747378752e-05
      ],
      "type": "VEC2"
    },
    {
      "bufferView": 0,
      "byteOffset": 240336,
      "componentType": 5125,
      "count": 8538,
      "type": "SCALAR"
    },
    {
      "bufferView": 2,
      "byteOffset": 424632,
      "componentType": 5126,
      "count": 9184,
      "max": [
        -22.9419002532959,
        16.773799896240234,
        86.23919677734375
      ],
      "min": [
        -84.95050048828125,
        -4.519800186157227,
        4.422399997711182
      ],
      "type": "VEC3"
    },
    {
      "bufferView": 2,
      "byteOffset": 534840,
      "componentType": 5126,
      "count": 9184,
      "max": [
        1.0,
        1.0,
        1.0
      ],
      "min": [
        -1.0,
        -1.0,
        -1.0
      ],
      "type": "VEC3"
    },
    {
      "bufferView": 3,
      "byteOffset": 283088,
      "componentType": 5126,
      "count": 9184,
      "max": [
        0.9997316598892212,
        0.9997961521148682,
        1.0,
        1.0
      ],
      "min": [
        -0.9998257756233215,
        -0.997904360294342,
        -0.9997849464416504,
        1.0
      ],
      "type": "VEC4"
    },
    {
      "bufferView": 1,
      "byteOffset": 141544,
      "componentType": 5126,
      "count": 9184,
      "max": [
        0.9912999868392944,
        0.9983999729156494
      ],
      "min": [
        9.999999747378752e-05,
        9.999999747378752e-05
      ],
      "type": "VEC2"
    },
    {
      "bufferView": 0,
      "byteOffset": 274488,
      "componentType": 5125,
      "count": 23979,
      "type": "SCALAR"
    },
    {
      "bufferView": 2,
      "byteOffset": 645048,
      "componentType": 5126,
      "count": 19107,
      "max": [
        10.676600456237793,
        26.00909996032715,
        93.63240051269531
      ],
      "min": [
        -116.34819793701172,
        -15.697199821472168,
        -0.04500000178813934
      ],
      "type": "VEC3"
    },
    {
      "bufferView": 2,
      "byteOffset": 874332,
      "componentType": 5126,
      "count": 19107,
      "max": [
        1.0,
        1.0,
        1.0
      ],
      "min": [
        -1.0,
        -1.0,
        -1.0
      ],
      "type": "VEC3"
    },
    {
      "bufferView": 3,
      "byteOffset": 430032,
      "componentType": 5126,
      "count": 19107,
      "max": [
        0.9999999403953552,
        0.9999993443489075,
        1.0,
        1.0
      ],
      "min": [
        -1.0,
        -0.9999970197677612,
        -1.0,
        -1.0
      ],
      "type": "VEC4"
    },
    {
      "bufferView": 1,
      "byteOffset": 215016,
      "componentType": 5126,
      "count": 19107,
      "max": [
        0.9947999715805054,
        0.9912999868392944
      ],
      "min": [
        9.999999747378752e-05,
        9.999999747378752e-05
      ],
      "type": "VEC2"
    },
    {
      "bufferView": 0,
      "byteOffset": 370404,
      "componentType": 5125,
      "count": 88719,
      "type": "SCALAR"
    },
    {
      "bufferView": 2,
      "byteOffset": 1103616,
      "componentType": 5126,
      "count": 21804,
      "max": [
        10.676600456237793,
        26.208999633789063,
        92.19999694824219
      ],
      "min": [
        -118.18939971923828,
        -15.89330005645752,
        -0.07090000063180923
      ],
      "type": "VEC3"
    },
    {
      "bufferView": 2,
      "byteOffset": 1365264,
      "componentType": 5126,
      "count": 21804,
      "max": [
        1.0,
        1.0,
        1.0
      ],
      "min": [
        -1.0,
        -1.0,
        -1.0
      ],
      "type": "VEC3"
    },
    {
      "bufferView": 3,
      "byteOffset": 735744,
      "componentType": 5126,
      "count": 21804,
      "max": [
        1.0,
        1.0,
        1.0,
        1.0
      ],
      "min": [
        -0.9999997019767761,
        -1.0,
        -1.0,
        -1.0
      ],
      "type": "VEC4"
    },
    {
      "bufferView": 1,
      "byteOffset": 367872,
      "componentType": 5126,
      "count": 21804,
      "max": [
        0.9990000128746033,
        0.9983999729156494
      ],
      "min": [
        9.999999747378752e-05,
        9.999999747378752e-05
      ],
      "type": "VEC2"
    },
    {
      "bufferView": 0,
      "byteOffset": 725280,
      "componentType": 5125,
      "count": 79914,
      "type": "SCALAR"
    },
    {
      "bufferView": 2,
      "byteOffset": 1626912,
      "componentType": 5126,
      "count": 3304,
      "max": [
        10.27750015258789,
        26.00909996032715,
        85.90080261230469
      ],
      "min": [
        -118.18939971923828,
        -15.697199821472168,
        -0.04500000178813934
      ],
      "type": "VEC3"
    },
    {
      "bufferView": 2,
      "byteOffset": 1666560,
      "componentType": 5126,
      "count": 3304,
      "max": [
        1.0,
        1.0,
        1.0
      ],
      "min": [
        -1.0,
        -0.999998927116394,
        -1.0
      ],
      "type": "VEC3"
    },
    {
      "bufferView": 3,
      "byteOffset": 1084608,
      "componentType": 5126,
      "count": 3304,
      "max": [
        1.0,
        0.9993503093719482,
        0.9848108291625977,
        1.0
      ],
      "min": [
        -1.0,
        -1.0,
        -0.9901034832000732,
        -1.0
      ],
      "type": "VEC4"
    },
    {
      "bufferView": 1,
      "byteOffset": 542304,
      "componentType": 5126,
      "count": 3304,
      "max": [
        0.9898999929428101,
        0.9907000064849854
      ],
      "min": [
        9.999999747378752e-05,
        9.999999747378752e-05
      ],
      "type": "VEC2"
    },
    {
      "bufferView": 0,
      "byteOffset": 1044936,
      "componentType": 5125,
      "count": 10230,
      "type": "SCALAR"
    },
    {
      "bufferView": 2,
      "byteOffset": 1706208,
      "componentType": 5126,
      "count": 54060,
      "max": [
        -0.08950000256299973,
        25.76689910888672,
        91.29229736328125
      ],
      "min": [
        -115.69940185546875,
        -15.45110034942627,
        5.489799976348877
      ],
      "type": "VEC3"
    },
    {
      "bufferView": 2,
      "byteOffset": 2354928,
      "componentType": 5126,
      "count": 54060,
      "max": [
        1.0,
        0.9999997615814209,
        1.0
      ],
      "min": [
        -1.0,
        -0.9999997615814209,
        -1.0
      ],
      "type": "VEC3"
    },
    {
      "bufferView": 3,
      "byteOffset": 1137472,
      "componentType": 5126,
      "count": 54060,
      "max": [
        1.0,
        1.0,
        0.9998381733894348,
        1.0
      ],
      "min": [
        -1.0,
        -0.9999993443489075,
        -1.0,
        -1.0
      ],
      "type": "VEC4"
    },
    {
      "bufferView": 1,
      "byteOffset": 568736,
      "componentType": 5126,
      "count": 54060,
      "max": [
        0.9998000264167786,
        0.9998000264167786
      ],
      "min": [
        9.999999747378752e-05,
        9.999999747378752e-05
      ],
      "type": "VEC2"
    },
    {
      "bufferView": 0,
      "byteOffset": 1085856,
      "componentType": 5125,
      "count": 96309,
      "type": "SCALAR"
    },
    {
      "bufferView": 2,
      "byteOffset": 3003648,
      "componentType": 5126,
      "count": 3301,
      "max": [
        -40.255001068115234,
        17.677400588989258,
        74.28150177001953
      ],
      "min": [
        -111.27549743652344,
        -0.2578999996185303,
        4.299699783325195
      ],
      "type": "VEC3"
    },
    {
      "bufferView": 2,
      "byteOffset": 3043260,
      "componentType": 5126,
      "count": 3301,
      "max": [
        0.9999997615814209,
        0.9999998807907104,
        0.9997645020484924
      ],
      "min": [
        -1.0,
        -0.9999994039535522,
        -1.0
      ],
      "type": "VEC3"
    },
    {
      "bufferView": 3,
      "byteOffset": 2002432,
      "componentType": 5126,
      "count": 3301,
      "max": [
        1.0,
        0.9994481205940247,
        0.9997730255126953,
        1.0
      ],
      "min": [
        -0.9995613098144531,
        -0.9991928935050964,
        -0.9998779892921448,
        -1.0
      ],
      "type": "VEC4"
    },
    {
      "bufferView": 1,
      "byteOffset": 1001216,
      "componentType": 5126,
      "count": 3301,
      "max": [
        0.9912999868392944,
        0.9990000128746033
      ],
      "min": [
        0.004699999932199717,
        9.999999747378752e-05
      ],
      "type": "VEC2"
    },
    {
      "bufferView": 0,
      "byteOffset": 1471092,
      "componentType": 5125,
      "count": 11436,
      "type": "SCALAR"
    }
  ],
  "asset": {
    "extras": {
      "author": "Patrick Goud (https://sketchfab.com/patrick_goud)",
      "license": "CC-BY-4.0 (http://creativecommons.org/licenses/by/4.0/)",
      "source": "https://sketchfab.com/3d-models/swapfiets-163434395a0e4ab38c12ae195e978a0d",
      "title": "Swapfiets"
    },
    "generator": "Sketchfab-13.49.0",
    "version": "2.0"
  },
  "bufferViews": [
    {
      "buffer": 0,
      "byteLength": 1516836,
      "name": "floatBufferViews",
      "target": 34963
    },
    {
      "buffer": 0,
      "byteLength": 1027624,
      "byteOffset": 1516836,
      "byteStride": 8,
      "name": "floatBufferViews",
      "target": 34962
    },
    {
      "buffer": 0,
      "byteLength": 3082872,
      "byteOffset": 2544460,
      "byteStride": 12,
      "name": "floatBufferViews",
      "target": 34962
    },
    {
      "buffer": 0,
      "byteLength": 2055248,
      "byteOffset": 5627332,
      "byteStride": 16,
      "name": "floatBufferViews",
      "target": 34962
    }
  ],
  "buffers": [
    {
      "byteLength": 7682580,
      "uri": "scene.bin"
    }
  ],
  "images": [
    {
      "uri": "textures/wire_134006006_baseColor.png"
    },
    {
      "uri": "textures/wire_134006006_metallicRoughness.png"
    },
    {
      "uri": "textures/wire_134006006_emissive.jpeg"
    },
    {
      "uri": "textures/wire_134006006_normal.png"
    }
  ],
  "materials": [
    {
      "alphaMode": "BLEND",
      "doubleSided": true,
      "emissiveFactor": [
        1.0,
        1.0,
        1.0
      ],
      "emissiveTexture": {
        "index": 2
      },
      "name": "wire_134006006",
      "normalTexture": {
        "index": 3
      },
      "occlusionTexture": {
        "index": 1
      },
      "pbrMetallicRoughness": {
        "baseColorTexture": {
          "index": 0
        },
        "metallicRoughnessTexture": {
          "index": 1
        }
      }
    },
    {
      "alphaMode": "BLEND",
      "doubleSided": true,
      "emissiveFactor": [
        1.0,
        1.0,
        1.0
      ],
      "emissiveTexture": {
        "index": 2
      },
      "name": "wire_153228153",
      "normalTexture": {
        "index": 3
      },
      "occlusionTexture": {
        "index": 1
      },
      "pbrMetallicRoughness": {
        "baseColorTexture": {
          "index": 0
        },
        "metallicRoughnessTexture": {
          "index": 1
        }
      }
    }
  ],
  "meshes": [
    {
      "name": "Object_0",
      "primitives": [
        {
          "attributes": {
            "NORMAL": 1,
            "POSITION": 0,
            "TANGENT": 2,
            "TEXCOORD_0": 3
          },
          "indices": 4,
          "material": 1,
          "mode": 4
        }
      ]
    },
    {
      "name": "Object_1",
      "primitives": [
        {
          "attributes": {
            "NORMAL": 6,
            "POSITION": 5,
            "TANGENT": 7,
            "TEXCOORD_0": 8
          },
          "indices": 9,
          "material": 1,
          "mode": 4
        }
      ]
    },
    {
      "name": "Object_2",
      "primitives": [
        {
          "attributes": {
            "NORMAL": 11,
            "POSITION": 10,
            "TANGENT": 12,
            "TEXCOORD_0": 13
          },
          "indices": 14,
          "material": 1,
          "mode": 4
        }
      ]
    },
    {
      "name": "Object_3",
      "primitives": [
        {
          "attributes": {
            "NORMAL": 16,
            "POSITION": 15,
            "TANGENT": 17,
            "TEXCOORD_0": 18
          },
          "indices": 19,
          "material": 0,
          "mode": 4
        }
      ]
    },
    {
      "name": "Object_4",
      "primitives": [
        {
          "attributes": {
            "NORMAL": 21,
            "POSITION": 20,
            "TANGENT": 22,
            "TEXCOORD_0": 23
          },
          "indices": 24,
          "material": 0,
          "mode": 4
        }
      ]
    },
    {
      "name": "Object_5",
      "primitives": [
        {
          "attributes": {
            "NORMAL": 26,
            "POSITION": 25,
            "TANGENT": 27,
            "TEXCOORD_0": 28
          },
          "indices": 29,
          "material": 0,
          "mode": 4
        }
      ]
    },
    {
      "name": "Object_6",
      "primitives": [
        {
          "attributes": {
            "NORMAL": 31,
            "POSITION": 30,
            "TANGENT": 32,
            "TEXCOORD_0": 33
          },
          "indices": 34,
          "material": 0,
          "mode": 4
        }
      ]
    },
    {
      "name": "Object_7",
      "primitives": [
        {
          "attributes": {
            "NORMAL": 36,
            "POSITION": 35,
            "TANGENT": 37,
            "TEXCOORD_0": 38
          },
          "indices": 39,
          "material": 0,
          "mode": 4
        }
      ]
    },
    {
      "name": "Object_8",
      "primitives": [
        {
          "attributes": {
            "NORMAL": 41,
            "POSITION": 40,
            "TANGENT": 42,
            "TEXCOORD_0": 43
          },
          "indices": 44,
          "material": 0,
          "mode": 4
        }
      ]
    }
  ],
  "nodes": [
    {
      "children": [
        1
      ],
      "matrix": [
        1.0,
        0.0,
        0.0,
        0.0,
        0.0,
        2.220446049250313e-16,
        -1.0,
        0.0,
        0.0,
        1.0,
        2.220446049250313e-16,
        0.0,
        0.0,
        0.0,
        0.0,
        1.0
      ],
      "name": "Sketchfab_model"
    },
    {
      "children": [
        2,
        3,
        4,
        5,
        6,
        7,
        8,
        9,
        10
      ],
      "name": "swapfiets.obj.cleaner.materialmerger.gles"
    },
    {
      "mesh": 0,
      "name": "Object_2"
    },
    {
      "mesh": 1,
      "name": "Object_3"
    },
    {
      "mesh": 2,
      "name": "Object_4"
    },
    {
      "mesh": 3,
      "name": "Object_5"
    },
    {
      "mesh": 4,
      "name": "Object_6"
    },
    {
      "mesh": 5,
      "name": "Object_7"
    },
    {
      "mesh": 6,
      "name": "Object_8"
    },
    {
      "mesh": 7,
      "name": "Object_9"
    },
    {
      "mesh": 8,
      "name": "Object_10"
    }
  ],
  "samplers": [
    {
      "magFilter": 9729,
      "minFilter": 9987,
      "wrapS": 10497,
      "wrapT": 10497
    }
  ],
  "scene": 0,
  "scenes": [
    {
      "name": "Sketchfab_Scene",
      "nodes": [
        0
      ]
    }
  ],
  "textures": [
    {
      "sampler": 0,
      "source": 0
    },
    {
      "sampler": 0,
      "source": 1
    },
    {
      "sampler": 0,
      "source": 2
    },
    {
      "sampler": 0,
      "source": 3
    }
  ]
}
